<?xml version="1.0" encoding="UTF-8"?>
<svg version="1.1" viewBox="0 0 1600 800" width="6912" height="3456" xmlns="http://www.w3.org/2000/svg">
<path transform="translate(0)" d="m0 0h1600v800h-1600z" fill="#FCDC93"/>
<path transform="translate(65,57)" d="m0 0h8l8 5 6 9v6l8-3h11l6 4 6 7 2 4v10l-1 1 9 2 8 7 4 9v7l-5 12 10-4h8l6 4 5 6 1 3v7l-1 2h6l8 7 3 6v7l-2 7 3 5v8l-1 2h6l6 4 5 8v8l-4 9-5 7-4 4-4 9-5 5-4 2h-11l-8 4-4 10-7 8-7 4h-9l-8-3-2 6-5 4-2 1h-11l-6-4-2-3-4 6-7 4h-4l-4 16-5 24-3 24-5 91-2 36h3l-1-9 3-8 8-7 12-3 2-2h25l1-8 6-8 7-4h13l8 4 8 9 3 9 7-6 4-2h14l8 4 6 6 5-2 6-3h15l9 5h12l6 4 5-13 7-8 6-3h9l5 3 3 5 1 5 5-4 4-2h13l6 4 5 6 2 4v13l9-1 9 4 9 2 6 4 5 4 8-3 16-1 15-4h9l9 4h13l8 3 5 6 4 10 3 6 5 4 5 5 3 6 1 3v8l-6 10-10 8h-2v2l10 2 36 12 25 9 34 14 30 14 4 1 12-22 11-16 3-2h6l22 11 18 11 7 6 2 3v7l-7 12 6 3 3 6v13l7-8 7-6 12-5 13-1 8 3 5 5 3 6v14l10-3 8-1h9l9 3 6 4 7 8 1 7h2l2-5 6-5 5-2h12l10 6 6 7 4 8 2 9v19l10-6 11-4h14l8 4 6 7 3 7 1 6v14l-3 12-5 10-7 9-10 7-4 2 16 9 11 9 9 9 5 8h-882v-713l5-4 4-1 3-9 8-7 6-3h11l5 4 5-2 12-6z" fill="#9FB418"/>
<path transform="translate(1327,564)" d="m0 0h13l7 7 13 10 17 10 16 7 22 5 8 1h28l20-4 14-5-2-5-6-9-1-4 19-1 10-3 9-6 4-1 3 8 1 11 17-3h12l17 3 13 5 12 7 7 6v197h-718l-9-11-8-8-13-9-12-7 12-8 5-5 7-10 4-11 1-6v-14l-2-9-5-8-5-4-5-2h-14l-13 5-9 5v-20l-3-11-5-9-7-6-6-3h-12l-8 4-4 5-1 2h-2l-3-8-7-8-8-4-5-1h-9l-12 2-7 2v-15l-4-8v-4l13-13 16-11 17-8 17-5 19-2 19 1 20 4 19 7 17 9 16 12 12 11 11 13 11 18 3 6 8-12 10-11 14-10 16-8 15-5 17-3h22l17 3 14 5 15 8 5 4v-14l3-11 5-10 3-4 6 1 43 11 47 9 46 7 35 4 8 8 7 8 13 11 19 12 17 8 18 6 25 5 9 1 29 1 4-19 3-15-9-3-21-10-20-12-13-10-10-9-11-11-8-11 1-9z" fill="#FEFEFD"/>
<path transform="translate(1181,184)" d="m0 0h22l14 3 16 7 13 9 12 12 9 14 6 15 3 14v20l-4 17-8 17-7 9-9 10-14 10-8 4h-2l8 22 5 22 3 22v4l27 5 30 7 5-2 19-9 20-6 18-3h35l24 4 25 7 10 4-4 32-1 3-27 2-24 4-19 5-17 7-15 8-5 4h-2l-1 13-2 9 9 1 1 3 14-7 20-6 13-2 13-1h10l20 2 13 3-1 4-4 2v2l13 1 17 5 14 7 12 9 7 7 10 14 3 6-1 5-10 8-6 3-8 2-18 1 4 8 5 7-1 3-18 6-16 3h-28l-18-3-15-4-15-7-15-9-10-8-10-9h-11l-2-1-2 12v6l10 13 15 15 16 12 24 14 26 12-1 10-5 22-1 2h-29l-21-3-16-4-15-5-19-9-18-12-15-13-12-13-50-6-42-7-27-5-45-11-31-10-23-8-26-11-24-12-19-12-12-9-12-11-8-8-9-13-6-12-2-9v-18l4-13 6-11 10-10 13-8 19-7 18-5 26-4 25-2-4 6 2 9 3 1 2 4 7-1 3-2 3 1-4 4v4h5l9-5 12-2 3-2-4-12-1-13 3-2 46-8h2l1-7 5-12-5-2-12-8-13-10-10-9-8-7-11-12-10-11 1-5 9-10 9-11 5 1 13 10-1-7-1-8v-16l3-15 6-15 8-12 9-10 9-8 16-9 16-5z" fill="#F9A200"/>
<path transform="translate(1181,184)" d="m0 0h22l14 3 16 7 13 9 12 12 9 14 6 15 3 14v20l-4 17-8 17-7 9-9 10-14 10-8 4h-2l8 22 5 22 3 22 2 30-5 1v14l-3 10-4 6-7 6-8 4-9 2h-19l3 5 6 19 6 28v4l4 2 4 5 3 9v6l-5 4-17 8-19 7h-6l-5-7v-6l10-16-6-8-11-13-15-20 2-4 13-7 1-3-13-22-1-1-7 1-9 4-4-1-3-11v-12l4-18 2-6-3-1 1-4-7 1h-19l-6-9-4-12-1-13 3-2 46-8h2l1-7 5-12-5-2-12-8-13-10-10-9-8-7-11-12-10-11 1-5 9-10 9-11 5 1 13 10-1-7-1-8v-16l3-15 6-15 8-12 9-10 9-8 16-9 16-5z" fill="#0079E5"/>
<path transform="translate(65,57)" d="m0 0h8l8 5 6 9v6l8-3h11l6 4 6 7 2 4v10l-1 1 9 2 8 7 4 9v7l-5 12 10-4h8l6 4 5 6 1 3v7l-1 2h6l8 7 3 6v7l-2 7 3 5v8l-1 2h6l6 4 5 8v8l-4 9-5 7-4 4-4 9-5 5-4 2h-11l-8 4-4 10-7 8-7 4h-9l-8-3-2 6-5 4-2 1h-11l-6-4-2-3-4 6-7 4h-4l-4 16-5 24-3 24-5 91-2 36h3l-1-9 3-8 8-7 6-2h5l1 14 3 3 4 1v35l-3 5-50 5-9 1-3-4-1-4v-9l3-9 7-8 8-4 3-1v-58l4-22 2-9 3-41 2-11 3-27 2-9v-38l-2-16-9 4h-12l-8-3-3-4-4-12-6-9-8-6-6-7-1-3v-122l5-4 4-1 3-9 8-7 6-3h11l5 4 5-2 12-6z" fill="#689528"/>
<path transform="translate(169,682)" d="m0 0 9 1 2 3 7-1 4 4 1 3 4-2h6l6 5 2 5v13l-1 2 7 1 2 3v7l-1 2h5l3 3 1-14 4-5 8-1 6 4 3-2 7 1 1 4h7l5 3 1 7 9 1 2 3v3l14 3 51 16 21 7 7 1-9-8-7-4-14-2 3-2 5-1-8-5h-5v-2l-5-2-4-3 1-2 7 1 5 2 2-1 5 8 14 9 10 8 10 9 2 4 3 1 2 2-1-4-3-3-2-5-4-2-11-10 2-1 7 4v2l6 2 8 8v2h2l1 4h2l-6-15-4-6-7-6-5-2v-1h8l-5-8-5-2-3-5 1-4 4 2 4 3 2 7 8 11 6 12 5-5-1 5v9l3 8h4v-68l-3-6 3 1 1 2-1-7 1-7h3l1 9-1 1-1 21h2l2-5 5-5-2 5-5 12v38l5-12 2-3h2l2-4 4-4-2 6-4 7-4 12-1 1-1 10 4 1 11-23 7-10 9-15 4-14h1l1 8 5-6 2-6 8-6h3l-1 4-8 7h-2l-2 4-10 13-7 10-1 2 4-2h5l-12 9-6 9-6 11v3l2-3h2l1-4h2l2-4 7-8 11-10 1-3 7-4h2l1 4-6 4-5 2-7 6 9-2-4 3-9 6-7 5-8 12 5-4 12-9 10-6 10-5 2 1-10 6-9 6-7 8-5 5-9 13-2 4h-420v-95l7 1 39 12 4 1-1 4-9 11-13 11-4 5-1 5 1 1 7 1-1-9 3-5 5-4 2-1h10l2 1 1-3 5-1 6 3 4 4 6-1 4 4 1 9 5-1 5 3 1 3 8-1 3 3 7 1 5 6 4-13 6-5 5 1 3-6 2-2h5l4-6 5-3h11l5 3 2-5 5-6 6-4 8-2 7 1 2 1v2l2-1h7l2 1-7-14-10-11-16-11-4-4z" fill="#689629"/>
<path transform="translate(1359,407)" d="m0 0h35l24 4 25 7 10 4-4 32-1 3-27 2-24 4-19 5-17 7-15 8-5 4h-2l-1 13-2 9 9 1 1 3 14-7 20-6 13-2 13-1h10l20 2 13 3-1 4-4 2v2l13 1 17 5 14 7 12 9 7 7 10 14 3 6-1 5-10 8-6 3-8 2-18 1 4 8 5 7-1 3-18 6-16 3h-28l-18-3-15-4-15-7-15-9-10-8-10-9h-11l-2-1-9 54-4 6-4 2h-9l-9-1 1-13 4-21 21-127 4-27 1-3-18-4-6-2 3-3 19-9 20-6z" fill="#F8A202"/>
<path transform="translate(387,354)" d="m0 0h375l9 4 8 7 4 8 1 3v13l-5 10-5 5-8 5-2 1h-379l-10-5-7-8-3-8-1-10 3-10 6-8 10-6z" fill="#032134"/>
<path transform="translate(1186,186)" d="m0 0h13l20 4 16 8 11 8 10 10 9 14 5 11 3 14 1 17-2 14-4 13-8 15-11 13-10 8-14 8-4-1-3-5v-2l-8 4-10 3h-16l-19-4 11 4 17 1-5 5-10 5h-10l-5-3-2-5 1-8-10-6-10-9-9-12-17-14-3-7-2-10v-23l3-14 5-12 8-12 9-10 10-8 14-8 18-5z" fill="#F2A184"/>
<path transform="translate(653,613)" d="m0 0 6 1 3 4 1 3v13l7-8 7-6 12-5 13-1 8 3 5 5 3 6v14l10-3 8-1h9l9 3 6 4 7 8 1 7h2l2-5 6-5 5-2h12l10 6 6 7 4 8 2 9v19l10-6 11-4h14l8 4 6 7 3 7 1 6v14l-3 12-5 10-7 9-10 7-4 2 16 9 11 9 9 9 5 8h-67l-12-17-12-16-13-15-9-10-11-12-21-21-8-7-15-13-14-11-16-12-7-5-3-1v-2l-4-2-9-5v-2h-3v-2l-5-2-6-4-3-1v-2l-4-2 2-5 8-13z" fill="#4E7F1C"/>
<path transform="translate(387,484)" d="m0 0h15l16 4 10 5 7 6 8 19v8l-6 14-5 12-1 5 4 7v5h2l3 6v6l2 1 1 3 2 1v2h2l5 5v9l-2 10-4 4h-8l-6-4-4-6-4-9-3-6-4-3 2 7v10l5 1 5 6 5 10 1 4v12l-4 10-7 8-10 6h-12l-8-5-10-14-3-10-2-13-5 1-10-2-10-6-3-3-5 2-6 3-5 6-9 6-10 4-9-1-9-8-7-12-1-11 3-7 8-9 8-5 6-3 14-1 12-7 6-4h-10l-11 3-5 2h-7l-6-4-4-6v-6l6-5 1-2h2v-2l2-1 18-1 10-3 5-3 8-3h3l2-12 1-1 2-10 3-12 8-7z" fill="#FC8670"/>
<path transform="translate(1419,46)" d="m0 0 15 2 14 7 9 9 7 13 13 1 6 4 3 3v2l11-4 11-1 11 4 7 6 5 10 1 7h10l6 4 4 6v7l-6 8-6 3h-236l-6-3-4-8v-8l6-7 9-3 4-12 7-8 11-5 3-1h8l2 1h8l7-8 9-3 11 1 6-9 8-9 15-7z" fill="#FEFEFD"/>
<path transform="translate(394,475)" d="m0 0h9l9 4h13l8 3 5 6 4 10 3 6 5 4 5 5 3 6 1 3v8l-6 10-10 8h-2v2l10 2 36 12 25 9 34 14 30 14 4 1 12-22 11-16 3-2h6l22 11 18 11 7 6 2 3v7l-7 12-6 11-10 16-4 5-5 1-14-7-15-9-8-4 5 5-1 5-11 20-14 21-6 5-7-2-22-13-16-10-3-4 2-9 11-19 1-3-16-4-38-12-22-7-1 2-2-1v-6l-4-2-1-3h-2v-2l-3-1v-3l-3-1v-6l-2-6h-2l-3-9-2-3 1-5 5-12 4-9 2-5v-8l-8-19-8-6-8-4-16-4h-15l-12 6-3 1-2 4-3 3-4 20-3 3-6-7-4-8-1-5v-9l6-10 8-3 16-1z" fill="#BAD110"/>
<path transform="translate(1289,426)" d="m0 0 8 1 24 6 2 1-3 21-4 27-21 127-3 16h18l5-3 3-9 5-30h3l8 11 16 16 16 12 24 14 26 12-1 10-5 22-1 2h-29l-21-3-16-4-15-5-19-9-18-12-15-13-12-13-7-1 1-7 5-31 2-15 3-16 5-33 3-16 5-33 3-16 4-27z" fill="#F8A200"/>
<path transform="translate(0,209)" d="m0 0 2 3 7 8 9 7 5 9 4 12 5 3 4 1h12l9-3 3 16v38l-2 9-4 33-2 18-2 28-5 24-1 7v58l-12 6-6 7-3 9v9l2 7-5-2-8-1-7 4-3 4h-2z" fill="#845F3A"/>
<path transform="translate(122,432)" d="m0 0h13l8 4 8 9 3 9 7-6 4-2h14l8 4 6 6 5-2 6-3h15l9 5h12l6 4 5-13 7-8 6-3h9l5 3 3 5 1 5 5-4 4-2h13l6 4 5 6 2 4v13l9-1 9 4 9 2 6 4 4 4-1 4-3 6v9l3 9 8 12v6l-9-1-30-5-45-6-28-3-28-2h-24l-3-5-2-1v-2h-48v-31l6-2 1-2v-14l-2-2-41-1 1-8 6-8z" fill="#689528"/>
<path transform="translate(65,57)" d="m0 0h8l8 5 6 9v6l8-3h11l6 4 6 7 2 4v10l-1 1 9 2 8 7 4 9v7l-4 10-1 4-9 3-4-3h-9l-8 4-5 5-1 7-7 3-4-1-7-3-10 1-12 5-10 5-1-3-5-2h-9l-12 6-5 6-2 9-7 2-5 6-2 5h-1v-107l5-4 4-1 3-9 8-7 6-3h11l5 4 5-2 12-6z" fill="#80CB27"/>
<path transform="translate(1359,407)" d="m0 0h35l24 4 25 7 10 4-4 32-1 3-27 2-24 4-19 5-17 7-15 8-5 4h-2l-1 13-3 16-7 42-2 15-3 16-5 29-4 6-4 2h-9l-9-1 1-13 4-21 21-127 4-27 1-3-18-4-6-2 3-3 19-9 20-6z" fill="#FE6621"/>
<path transform="translate(83,452)" d="m0 0h66l3 3v14l-4 4h-4v31l16-1h16l16 1v45l-3 1 2 11v6h-10l-1 7-5 6-7 3-9-1-7-6-2-5v-4h-20l-2 8-4 5-7 3-9-1-6-4-3-5-1-5-10-1v-94l-6-1-2-3v-14z" fill="#F5AF33"/>
<path transform="translate(122,146)" d="m0 0h15l10 3 7 5 2 4v8l-6 9-7 7h12l12 6 8 8 4 8 2 6v11l-3 9-7 13-11 11-7 3-4 10-7 8-7 4h-9l-8-3-7-9-2-5v-21l1-4-2 1h-9l-12-6-8-8-3-6-1-4 1-15 5-15 6-8 5-3 7 1 4 1 1-4-1-3v-9l4-6 5-4z" fill="#7FCB27"/>
<path transform="translate(1124,432)" d="m0 0 9 2 24 6 18 3 10 1h33l19-2v14l-3 10-4 6-7 6-8 4-9 2h-19l3 5 6 19 6 28v4l4 2 4 5 3 9v6l-5 4-17 8-19 7h-6l-5-7v-6l10-16-6-8-11-13-15-20 2-4 13-7 1-3-13-22-1-1-7 1-9 4-4-1-3-11v-12l4-18z" fill="#122D45"/>
<path transform="translate(169,682)" d="m0 0 9 1 2 3 7-1 4 4 1 3 4-2h6l6 5 2 5v13l-1 2 7 1 2 3v7l-1 2h5l3 3 1-14 4-5 8-1 6 4 3-2 7 1 1 4h7l5 3 1 7 9 1 2 3v3l14 3 51 16 21 7 7 1-9-8-7-4-14-2 3-2 5-1-8-5h-5v-2l-5-2-4-3 1-2 7 1 5 2 2-1 5 8 14 9 10 8 10 9 2 4 3 1 2 2-1-4-3-3-2-5-4-2-11-10 2-1 7 4v2l6 2 8 8v2h2l1 4h2l-6-15-4-6-7-6-5-2v-1h8l-5-8-5-2-3-5 1-4 4 2 4 3 2 7 8 11 6 12 5-5-1 5v9l3 8h4v-68l-3-6 3 1 1 2-1-7 1-7h3l1 9-1 1-1 21h2l2-5 5-5-2 5-5 12v38l5-12 2-3h2l2-4 4-4-2 6-4 7-4 12-1 1-1 10 4 1 11-23 7-10 9-15 4-14h1l1 8 5-6 2-6 8-6h3l-1 4-8 7h-2l-2 4-10 13-7 10-1 2 4-2h5l-12 9-6 9-6 11v3l2-3h2l1-4h2l2-4 7-8 11-10 1-3 7-4h2l1 4-6 4-5 2-7 6 9-2-4 3-9 6-7 5-8 12 5-4 12-9 10-6 10-5 2 1-10 6-9 6-7 8-5 5-9 13-2 4h-84l-3-6-9-4-5-1-7-1-1-2 3-6v-5l-3-3v-7l-5-3-3-6-6-1-6 2-1-8-5-2-9-1-3-5-6-1-6 3-3 1-7-1-5 5h-8l-3 4v13l-5-3h-7l2-7-1-7-3-3h-6l-2-10-4-4-3-1-4-9-6-11-10-11-16-11-4-4z" fill="#899D1F"/>
<path transform="translate(998,407)" d="m0 0h8v46l-4 29-7 28-7 20-5 12-3 1-14-10-13-12-8-8-9-13-6-12-2-9v-18l4-13 6-11 10-10 13-8 19-7z" fill="#FD6621"/>
<path transform="translate(110,236)" d="m0 0 1 2-1 3v21l4 8 4 4-1 6-4 5-4 2h-11l-6-4-2-3-4 6-7 4h-4l-4 16-5 24-3 24-5 91-2 36h3l-1-9 3-8 8-7 6-2h5l1 14 3 3 4 1v35l-3 5-50 5-9 1-3-4-1-4v-9l3-9 7-8 8-4 3-1v-58l4-22 2-9 3-41 2-11 3-27 2-9v-38l-2-12v-5l4-5 2-4h1l1 5 7 4 4 1h8l8-4 6-8h10z" fill="#9C6636"/>
<path transform="translate(387,484)" d="m0 0h15l16 4 10 5 7 6 8 19v8l-6 14-5 12-1 5 4 7v5h2l3 6v6l2 1 1 3 2 1v2h2l5 5v9l-2 10-4 4h-8l-6-4-4-6-4-9-3-6-4-4v-2l-7-1-3-2 3-9 4-10 6-7 2-10-4 2-8 1h-9l-13-4-12-7-7-7-2 9 1 9-2 14-2 3h-11l-5-3h-11l-11 3-5 2h-7l-6-4-4-6v-6l6-5 1-2h2v-2l2-1 18-1 10-3 5-3 8-3h3l2-12 1-1 2-10 3-12 8-7z" fill="#F6D74C"/>
<path transform="translate(146,673)" d="m0 0 9 3 13 10 11 7 10 8 8 9 7 14-1 3-2-3h-9v-2l-9-1-10 3-5 4-6 9-5-2h-11l-6 4-2 5h-6l-3 5-2 3-5-1-5 4-3 9-1 6-4-5-5-3-5-1-2-2h-8l-3-4-5-1-4 1-1-10-3-3-7 1-4-5-5-2-5 1-1 2h-12l-6 4-3 5v9h-7l-2-2 1-5 7-8 11-9 12-15 10-14 4-3 19 2 7 3 4 5 1 5h2l2-4 19-14 9-10 7-8 7-6z" fill="#A3AAB2"/>
<path transform="translate(1324,582)" d="m0 0 4 4 8 10 14 14 16 12 24 14 26 12-1 10-5 22-1 2h-29l-21-3-16-4-15-5-19-9-18-12-15-13-10-11v-2l26 1 9 1h9l5-3 3-9 5-30z" fill="#FE6722"/>
<path transform="translate(1062,445)" d="m0 0h10l12 3 10 6 9 9 6 12 2 7v15l-4 12-7 10-9 8-11 5-4 1h-18l-11-4-9-6-7-7-6-12-2-7v-15l3-10 6-10 4-5 10-7 10-4z" fill="#FC6621"/>
<path transform="translate(653,613)" d="m0 0 6 1 3 4 1 3v13l7-8 7-6 12-5 13-1 8 3 5 5 3 6v11l-2 6-7 9-5 5 18-4h23l12 3 10 5 7 8 2 5v10l-5 10-9 8-14 5-10 1-10-9-14-12-14-11-16-12-7-5-3-1v-2l-4-2-9-5v-2h-3v-2l-5-2-6-4-3-1v-2l-4-2 2-5 8-13z" fill="#689628"/>
<path transform="translate(1390,513)" d="m0 0h23l13 2v3l-6 4v1l16 3 15 5 15 8 9 7 8 7 1 6-4 2-21 3-5 2 8 8 5 10v4l-7 3-17 3h-20l-13-2-18-5-11-5-16-8-12-8-13-10 1-9 2-2 16 10 16 7 12 3 15 1 12-2 10-4 4-3-2-4-12-7-15-5 2-4 1-3-10-3-7-1h-14l-18 3-9 2v-6l3-4 21-8 14-3z" fill="#132E45"/>
<path transform="translate(1174,208)" d="m0 0h24l15 4 16 7 4 4 1 5 9 2 8 10 7 15 2 8v22l-2 7-5-3-5-1-1 7-3-3-6-17-4-10-12-3-1-1-1-11-7 10-12-1-9-2-2-12-6 10-3 1-19-3-1-1-1-11-7 10-13-1-6 10-3 11h-8v-8l4-16 6-12 8-10 10-8 15-7z" fill="#132F45"/>
<path transform="translate(0,647)" d="m0 0 9 2 25 8 58 18 31 10 5 2v3l-9 10-14 10-5 4-1 2h-2l-4-8-4-3-19-3-6 1-8 10-5 7-9-2-42-13z" fill="#8B9E1F"/>
<path transform="translate(1186,186)" d="m0 0h13l20 4 16 8 11 8 10 10 9 14 5 11 3 14 1 17-2 14-4 13-8 15-11 13-10 8-14 8-4-1-3-5v-3l11-8 9-10h10l6-3 4-6 1-3v-9l-1-5 1-5v-22l-4-13-7-13-5-6-9-3-3-6-8-5-12-5-13-3h-24l-13 4-13 7-9 8-9 14-5 15-2 14-4 2-2 6v9l4 8 4 3 6 2 3 8-5-2-14-12-4-16v-23l3-14 5-12 8-12 9-10 10-8 14-8 18-5z" fill="#FBDC92"/>
<path transform="translate(1265,421)" d="m0 0h7l17 4-2 18-4 25-2 9-4 27-4 22-4 27-4 22-5 34-3 13-20-2-4-1 2-18 7-43 3-15 4-27 4-25 3-15 4-27 4-25z" fill="#152E45"/>
<path transform="translate(1323,435)" d="m0 0 8 1 10 3 4 5 1 5-6 36-2 15-3 16-7 42-2 15-3 16-5 29-4 6-4 2h-9l-9-1 1-13 4-21 21-127 4-27z" fill="#112D46"/>
<path transform="translate(277,69)" d="m0 0h7l9 3 7 6 4 7v2l6-1 5 3 3 2 7-2 8 1 7 6 2 5v3h6l5 5v5l-5 5h-134l-3-3-1-7 5-5 3-1 4-8 4-4 6-2h10l6-5h9l6-8 5-4z" fill="#FEFEFD"/>
<path transform="translate(579,255)" d="m0 0h9l7 6 14 19 3 4v2l2-1 1-15 3-10 6-5h10l5 4 2 3v56l-2 10-4 4-2 1h-8l-8-5-7-7-8-11-4-3v17l-4 7-4 2h-9l-5-4-2-4-1-6v-43l1-15z" fill="#C50D0D"/>
<path transform="translate(606,562)" d="m0 0h6l22 11 18 11 7 6 2 3v7l-7 12-6 11-10 16-4 5-5 1-14-7-15-9-22-13-1-7 4-9 13-23 10-14z" fill="#EF3420"/>
<path transform="translate(566,159)" d="m0 0h9l8 7 14 19 5 5v-14l3-12 6-5h10l6 5 1 2v58l-3 10-5 3h-8l-9-6-8-9-7-10-3-1v17l-4 7-4 2h-9l-5-4-2-5v-63z" fill="#C50C0C"/>
<path transform="translate(392,255)" d="m0 0h8l8 7 14 19 5 5v-9l2-14 4-6 3-2h10l6 5 1 2v59l-3 9-4 3h-8l-8-4-10-11-7-10-3-1v17l-3 6-4 3h-9l-6-4-2-6v-60l3-6z" fill="#C40C0C"/>
<path transform="translate(602,636)" d="m0 0h7l16 8 19 11 10 7 2 3-1 7-11 21-10 16-6 6-8-1-17-10-9-5-16-10-2-2v-7l11-21 5-10h2v-3h2v-3h2v-3h2z" fill="#F286BD"/>
<path transform="translate(545,601)" d="m0 0h7l19 10 17 10 4 3 5 6-1 5-11 20-14 21-6 5-7-2-22-13-16-10-3-4 2-9 14-25 9-14z" fill="#F7E505"/>
<path transform="translate(644,158)" d="m0 0h7l7 3 3 4v28h6v-26l3-6 5-3 9 1 5 5 2 5v57l-3 7-5 3h-9l-5-3-2-3v-18h-6v16l-3 5-5 3h-11l-5-5-1-5v-41l1-18 3-6z" fill="#C50E0D"/>
<path transform="translate(377,501)" d="m0 0 5 1 6 3-2 1 2 2 8 3 1-2 6 3v2l6 2 5 4-5 1v6l4 1 2-5 1-3 15 6-2 10-3 3-2 5-6 4-8 1h-9l-13-4-12-7-7-7-2 9 1 9-2 14-2 3h-11l-5-3h-11l-11 3-5 2h-7l-6-4-4-6v-6l6-5 1-2h2v-2l2-1 18-1 10-3 5-3 8-3h3l2-12 1-1 2-10 1-2 5-1-1 4 5-1 2-5z" fill="#F6D34A"/>
<path transform="translate(720,158)" d="m0 0 11 1 9 6 7 9 4 11 1 5v16l-4 13-6 9-8 7-6 2h-10l-9-5-7-8-5-10-2-11v-12l3-12 6-10 4-5 6-4z" fill="#C50D0D"/>
<path transform="translate(350,158)" d="m0 0h11l8 2 8 4 7 6 6 11 2 7v15l-3 12-6 9-9 8-11 4-14 1-6-5-3-7v-54l3-7 5-5z" fill="#C50D0D"/>
<path transform="translate(264,436)" d="m0 0h9l5 3 3 5 1 5 5-4 4-2h13l6 4 5 6 2 4v13l9-1 7 3v2l-9 3-6 5-4 8-2 8-7-3h-11l-9 5-3 1-5-2-3-13-6-8-8-4-10-1-8 3-5 3-3-13-3-5v-2l-2-1 2-2h9l6 4 5-13 7-8z" fill="#4F801C"/>
<path transform="translate(514,158)" d="m0 0h31l7 3 4 5v9l-3 5-2 2-10 1h-10l1 4 15 1 4 2 1 2v11l-5 5h-16v5h17l5 4 2 5v7l-3 5-6 3h-29l-7-3-2-5-1-9v-55l3-5z" fill="#C50D0D"/>
<path transform="translate(403,158)" d="m0 0h32l8 4 3 6-1 9-5 5-10 1h-9l1 4 15 1 5 5v9l-3 5-2 1-17 1 1 3 17 1 5 5 1 2v11l-6 5-3 1h-30l-6-4-2-7v-62l4-5z" fill="#C50D0D"/>
<path transform="translate(776,158)" d="m0 0h11l8 3 5 4 4 8-1 7-5 5h-8l-5-5-1-2h-2l1 5 9 4 10 5 6 8 2 6v8l-4 11-8 7-10 4h-16l-9-4-6-7-2-4v-9l3-5 3-2 8 1 8 6h2l-1-4-5-4-11-7-6-9v-10l3-8 5-6z" fill="#C50D0D"/>
<path transform="translate(469,158)" d="m0 0h11l10 4 5 6 2 4v7l-4 5-2 1h-8l-5-5-1-2h-2l1 5 5 3 11 4 6 5 4 7 1 4v10l-5 10-8 7-9 3h-15l-10-4-6-8-2-5v-7l3-5 4-2 7 1 8 6 3 1-1-6-4-2-10-6-7-7-2-5v-9l4-9 5-5 8-5z" fill="#C50D0D"/>
<path transform="translate(763,254)" d="m0 0h11l9 4 6 7 1 2v9l-5 5-5 1-5-2-4-5v-2h-3l2 6 5 3 9 3 9 8 3 8v13l-4 8-7 6-10 4h-16l-8-3-7-8-2-3v-11l5-5 5-1 8 4 3 3h3l-1-4-9-6-8-6-4-5-2-6 1-9 5-9 8-6z" fill="#C50D0D"/>
<path transform="translate(537,254)" d="m0 0h6l6 4 7 16 15 44v8l-5 5h-9l-6-5-2-3h-19l-5 7-4 2h-8l-5-4-1-3v-8l11-27 12-30 5-5z" fill="#C50D0D"/>
<path transform="translate(198,511)" d="m0 0h23l38 3 42 5 34 5 25 5-1 3-14 5-2 2-10 3-20 1v2h-2l-1 3-4 4h-2v-2l-16-4-44-14-20-6-21-7v3h-4z" fill="#B9D110"/>
<path transform="translate(333,473)" d="m0 0 11 2 6 4 4 4-1 4-3 6v9l3 9 8 12v6l-9-1-30-5-45-6-18-2 1-5 7-8 5-2h12l7-5 3-1h11l6 3 4-12 7-8 6-3z" fill="#689628"/>
<path transform="translate(998,407)" d="m0 0h8v46l-4 29-7 28-7 20-5 12-3 1-14-10-3-4 9-24 7-25 4-22 1-9 1-38 9-3z" fill="#122E45"/>
<path transform="translate(0,376)" d="m0 0 4 5 10 19 6 18 3 15 2 20v42l-2 7v9l2 7-5-2-8-1-7 4-3 4h-2z" fill="#FCDB92"/>
<path transform="translate(1336,509)" d="m0 0 9 1 2 5-1 12-1 7 18-4 8-1h14l14 3 4 2-2 4-2 3 10 2 14 7 6 5-2 4-10 5-7 2-15 1-17-3-15-6-11-6-9-6-2 7-2 10-2 2h-8l-2-1 1-12 7-42z" fill="#FA6622"/>
<path transform="translate(1060,460)" d="m0 0h14l12 6 7 8 3 8 1 10-3 11-7 9-8 5-7 2h-10l-11-4-7-6-5-9-2-8 1-11 5-10 8-7z" fill="#112D46"/>
<path transform="translate(469,254)" d="m0 0h33l5 3 2 2 1 9-3 6-4 3-4 1h-13v5h11l5 3 2 2v12l-4 5-15 1v16l-3 8-4 3h-9l-5-3-3-7v-34l1-26 2-5z" fill="#C50E0D"/>
<path transform="translate(75,455)" d="m0 0h5l1 14 3 3 4 1v35l-3 5-50 5-9 1-3-4-1-4v-9l3-9 7-8 8-4 3-1h12l4 1-1-9 3-8 8-7z" fill="#689628"/>
<path transform="translate(657,253)" d="m0 0h40l7 3 3 3 1 2v9l-4 6-4 2-10 1-1 40-3 9-6 4h-8l-6-7-1-3v-43h-9l-8-4-3-5v-8l3-5z" fill="#C50E0D"/>
<path transform="translate(169,682)" d="m0 0 9 1 2 3 7-1 4 4 1 3 4-2h6l6 5 2 5v13l-1 2 7 1 2 3v7l-1 2h5l3 3 1-14 4-5 8-1 6 4 3-2 7 1 1 4h7l5 3 1 7 9 1 2 3-1 7-1 2 7 2 2 4-10-1-3-5-6-1-6 3-3 1-7-1-5 5h-8l-3 4v13l-5-3h-7l2-7-1-7-3-3h-6l-2-10-4-4-3-1-4-9-6-11-10-11-16-11-4-4z" fill="#4F7F1C"/>
<path transform="translate(65,57)" d="m0 0h8l8 5 6 9v7l-15 8-6-5h-10l-14 7-2 4-2 9-9 4-5 10-2 6-3 1-5-8-6-5-8-2v-20l5-4 4-1 3-9 8-7 6-3h11l5 4 5-2 12-6z" fill="#699628"/>
<path transform="translate(188,550)" d="m0 0 2 4 1 13h-10l-1 7-5 6-7 3-9-1-7-6-2-5v-4h-20l-2 8-4 5-7 3-9-1-6-4-3-5-1-5-10-1v-16z" fill="#007AE6"/>
<path transform="translate(904,49)" d="m0 0 8 1 8 5 3 5v2h6l3 2 8-1 6 3 4 5v3h5l3 4-1 5-2 2h-97l-2-3v-5l6-4 2-5 5-4 6-1 5-1 2-2h8l2-4 6-5z" fill="#FEFEFD"/>
<path transform="translate(678,469)" d="m0 0 8 2 8 7 1 4h6l4 3 7-2 6 3 4 5v3l6 1 2 3-1 5-2 2h-97l-2-3v-5l6-4 3-6 4-3 6-1 5-1 3-2h7l2-4 6-5z" fill="#FEFEFD"/>
<path transform="translate(32,252)" d="m0 0 5 1 4 19 4 17 1 18-2 17-3 19-1 32-3 16-3 4-4-13-2-14-2-48-3-19-7-21-5-11-2-7 3 1h10l6-4z" fill="#FCDB90"/>
<path transform="translate(160,503)" d="m0 0h16l16 1v45l-4 2h-43l-1-1v-46z" fill="#C81A3E"/>
<path transform="translate(48,252)" d="m0 0h3l3 18v29l-5 28-2 18-1 6-3 42-5 24-1 8-1 23h-1l-3-21-3-17-9-36-3-20v-16l2-17v-21l-1-13 2 3 4 11 3 19 2 48 2 14 3 11 2-2 3-16 1-32 4-25 1-19-2-15-5-20-1-11z" fill="#9D6735"/>
<path transform="translate(407,688)" d="m0 0 2 1 1 9-1 1-1 21h2l2-5 5-5-2 5-5 12v38l5-12 2-3h2l2-4 4-4-2 6-4 7-4 12-1 1-1 10 4 1 11-23 7-10 9-15 4-14h1l1 8 5-6 2-6 8-6h3l-1 4-8 7h-2l-2 4-10 13-7 10-1 2 4-2h5l-12 9-6 9-6 11v3l2-3h2l1-4h2l2-4 7-8 11-10 1-3 7-4h2l1 4-6 4-5 2-7 6 9-2-4 3-9 6-7 5-8 12 5-4 12-9 10-6 10-5 2 1-10 6-9 6-7 8-5 5-9 13-2 4h-27l-12-12-13-9-12-6-11-3 4-1 11 2v2l9 2 13 7 11 9 6 7-2-7-3-5 1-3-7-13-3-3-2-5-4-2-11-10 2-1 7 4v2l6 2 8 8v2h2l1 4h2l-6-15-4-6-7-6-5-2v-1h8l-5-8-5-2-3-5 1-4 4 2 4 3 2 7 8 11 6 12 5-5-1 5v9l3 8h4v-68l-3-6 3 1 1 2-1-7 1-7z" fill="#2D663C"/>
<path transform="translate(315,575)" d="m0 0h8l7 4 7 8 7 14-1 8-5 8-5 5-5 4-8 4-10 1-7-4-7-8-5-9-1-11 3-7 8-9 8-5z" fill="#DE6231"/>
<path transform="translate(409,610)" d="m0 0 12 1 9 3 4 8 1 4v12l-4 10-7 8-10 6h-12l-8-5-10-14 1-13 4-10 5-5z" fill="#DE6231"/>
<path transform="translate(122,432)" d="m0 0h13l8 4 8 9 3 9 7-6 4-2h14l8 4 6 6-1 4-4 8-1 4v12l-12-4h-8l-10 4-6 7-3-1-4-6v-11l6-2 1-2v-14l-2-2-41-1 1-8 6-8z" fill="#4F7F1C"/>
<path transform="translate(394,475)" d="m0 0h9l9 4h13l8 3 5 6 4 10 3 6 5 4 5 5 3 6 1 3v8l-6 10-10 8-5 2h-5l2-9 3-5 4-10v-8l-8-19-8-6-8-4-16-4h-15l-12 6-3 1-2 4-3 3-4 20-3 3-6-7-4-8-1-5v-9l6-10 8-3 16-1z" fill="#DE6331"/>
<path transform="translate(0,705)" d="m0 0 7 1 39 12 4 1-1 4-9 11-13 11-4 5-1 5 1 4-3 2-2 8-9 1-4 4-1 5-4-1z" fill="#689628"/>
<path transform="translate(361,254)" d="m0 0h9l5 3 3 7v55l-3 9-4 3-3 1h-8l-5-5-2-5v-56l2-7z" fill="#C60E0D"/>
<path transform="translate(719,254)" d="m0 0h9l6 5 2 4v55l-2 8-5 5-3 1h-8l-5-5-2-6v-57l3-6z" fill="#C70F0D"/>
<path transform="translate(377,501)" d="m0 0 5 1 6 3-2 1 2 2 8 3 1-2 6 3v2l6 2 5 4-5 1v6l4 1 2-5 1-3 15 6-2 10-3 3-2 5-6 4-8 1h-9l-13-4-12-7-7-7 4-17 3-10z" fill="#FDF2D7"/>
<path transform="translate(83,452)" d="m0 0h66l3 3v14l-4 4h-64l-4-4v-14z" fill="#CE193D"/>
<path transform="translate(1065,251)" d="m0 0 5 1 8 14 2-9 2-2 4 1 3 13 2 12-9 11-6 7-9-1-7-6-4-4-8-5-2-2 1-4h5l-6-5v-5l4-1 8 4-5-7-1-6 4-2 8 7 2 2-2-6v-6z" fill="#F1A283"/>
<path transform="translate(1200,539)" d="m0 0 5 2 5 6 3 9v6l-5 4-17 8-19 7h-6l-5-7v-6l10-16 12-6z" fill="#0079E5"/>
<path transform="translate(551,617)" d="m0 0 6 1 15 9 3 5-1 9-5 4-1 9-5 6-2 1h-9l-17-10-2-4 10-18 7-11z" fill="#F288C2"/>
<path transform="translate(627,581)" d="m0 0 5 1 6 4v10l-5 33-2 3h-5l-5-3-1-7 1-5-5-2-4-2-5 1-4 3-6-2-3-2v-5l10-9 14-11z" fill="#F8E004"/>
<path transform="translate(662,91)" d="m0 0h11l6 3 5 6 2 5v10l-3 7-4 5-7 3h-9l-8-4-5-8-1-10 3-9 4-5z" fill="#0D2C35"/>
<path transform="translate(515,91)" d="m0 0h11l8 5 4 7 1 3v8l-4 10-5 4-5 2h-9l-8-4-4-6-2-6v-8l3-7 4-5z" fill="#0D2B35"/>
<path transform="translate(1067,394)" d="m0 0h18l3 16 3 9-7 3-9 1-9 5h-5l-1-5 4-4-5 2-7 1-2-2v-3l-4-1-2-9 6-7 10-5z" fill="#F1A281"/>
<path transform="translate(616,652)" d="m0 0 10 1 8 5 4 5 2 5-1 8-1 1-9-1-2-2-2-8-2-1h-6l-3 1-2 5-3 9 2 4 6 1 3-2h5l5 5-1 5-6 4-3 1h-7l-10-5-5-6-2-6v-7l4-10 8-9z" fill="#EF3220"/>
<path transform="translate(0,266)" d="m0 0 4 5 5 10 4 17v23l-1 11-1 29-5-5-6-7z" fill="#9C6735"/>
<path transform="translate(1346,482)" d="m0 0h8l19 7 15 9v2l-16 3-12 4-11 6h-3l-1-2-9-2 1-9 2-13z" fill="#FEFDFA"/>
<path transform="translate(398,462)" d="m0 0h14l11 3 9 5 10 9 4 9 2 15-1 4-5-6-4-11-4-6-5-3-9-1h-8l-9-4h-9l-15 4h-5l10-10 7-6z" fill="#FC8773"/>
<path transform="translate(0,361)" d="m0 0 6 5 6 10 5 11 7 26 4 25 2 14 6 17 1 2v12l-8 6-4 4-1-40-3-26-5-19-7-16-9-16z" fill="#9C6635"/>
<path transform="translate(177,183)" d="m0 0h3l2 4v8l-1 2h6l6 4 5 8v8l-4 9-5 7-4 4-4 9-5 5-4 2h-8v-4l8-9 5-10 3-9v-11l-3-9-6-8 2-4z" fill="#30673D"/>
<path transform="translate(0,209)" d="m0 0 2 3 7 8 9 7 5 9 4 12 5 3-1 5-5 6-4 2h-10l-5-5-5-15-1-15-1-3z" fill="#2B643F"/>
<path transform="translate(1181,184)" d="m0 0h22l14 3 16 7 13 9 12 12 9 14 6 15 3 14v20l-4 17-8 17-7 9-9 10-14 10-8 4h-3v-2l13-7 9-7 7-6 10-14 7-15 3-13 1-15-2-16-3-11-8-16-8-10-8-8-14-9-11-5-20-4h-13l-16 3-12 4-14 8-13 12-9 13-5 10-4 12-1 7v23l3 15-4-2-3-17v-16l3-15 6-15 8-12 9-10 9-8 16-9 16-5z" fill="#1F3F41"/>
<path transform="translate(107,247)" d="m0 0h2l1 15 4 8 4 4-1 6-4 5-4 2h-11l-6-4-2-3-4 6-5 3h-5l3-9 7-12 11-12z" fill="#2D653D"/>
<path transform="translate(1220,386)" d="m0 0v3l-8 8-14 9-21 9-18 6-15 3h-6v-1h5l-5-15 2-4 29-10 4 2 6 14 5-1 17-8 10-7z" fill="#112D46"/>
<path transform="translate(591,624)" d="m0 0 6 2 22 13 10 5 5-1 5-7 5 2v2l5 1 9 6v2h3v2l4 1 9 6v2l4 1 13 9v2l-11-3-24-8 1 4-3-1-5-5-26-15-14-7h-7l-2 3h-2v3l-5 1-1-3 4-8-1-4z" fill="#BACF11"/>
<path transform="translate(108,552)" d="m0 0h12l8 7 2 6-1 8-4 6-8 4-9-1-6-4-3-5-1-8 3-7z" fill="#112D46"/>
<path transform="translate(160,552)" d="m0 0h11l6 4 3 4 1 3v8l-3 6-6 5-9 1-7-3-5-6-1-3v-8l3-6 5-4z" fill="#112D46"/>
<path transform="translate(98,484)" d="m0 0h36v21h-36z" fill="#112D46"/>
<path transform="translate(437,579)" d="m0 0h2l3 3 1 3 2 1v2h2l5 5v9l-2 10-4 4h-8l-6-4-4-6-4-9-3-6-2-2 16-8z" fill="#FDF2D4"/>
<path transform="translate(122,432)" d="m0 0h13l8 4 8 9 3 9 5-5 2 1-7 7-1 11h-1l-1-13-2-2-41-1 1-8 6-8z" fill="#557F1E"/>
<path transform="translate(315,542)" d="m0 0h20l3 20-8 3-9 3h-7l-6-4-4-6v-6l6-5 1-2h2v-2z" fill="#FDF2D4"/>
<path transform="translate(1136,473)" d="m0 0h5l7 10 8 14-2 4-14 8-2 1-12-21-4-10z" fill="#FA6622"/>
<path transform="translate(478,91)" d="m0 0 5 1 7 14 8 18v5l-4 1-3-3-2-5-19-1-1 5-3 4-4-1-1-3 15-33z" fill="#0F2D35"/>
<path transform="translate(1157,296)" d="m0 0h38l1 5-4 8-8 6-5 1h-8l-8-4-6-7-1-2v-6z" fill="#1F3543"/>
<path transform="translate(467,774)" d="m0 0 4 1-18 7h-2v2l-3 2 3 2 8 2 23 7 1 3h-61l6-7 7-6h2v-2l14-7z" fill="#899D1F"/>
<path transform="translate(407,688)" d="m0 0 2 1 1 9-1 1-1 21h2l2-5 5-5-2 5-5 12v45l-1 5h-2v15l-1 5-2-3-5-17-4-4-1-7-5-12-7-8-8-4v-1h8l-5-8-5-2-3-5 1-4 4 2 4 3 2 7 8 11 6 12 5-5-1 5v9l3 8h4v-68l-3-6 3 1 1 2-1-7 1-7z" fill="#4A7A33"/>
<path transform="translate(387,484)" d="m0 0h15l16 4 10 5 7 6 4 10v2l-5-1-1 5-1-4 1-2h-2v6h-1v-9h-3v-3l-4-1-1 7-2 3 1-12-2 7h-1l1-9h-2v7l-2 3 1-11-10-1h-2l-2 1v-2h-2l-2 5-1-2 2-4h-3v-2l-3 1v-2l-5 2v-2h-13l4-3z" fill="#FAA430"/>
<path transform="translate(1100,315)" d="m0 0 5 1 16 13 7 6-2 5-7 9-8-6-8-7-10-9-1-2z" fill="#122E45"/>
<path transform="translate(38,727)" d="m0 0h6l-2 5-9 8-8 7-3 5 1 7-3 2-2 8-9 1-4 4-1 5-4-1v-20l7-5 5-2h5l1-6 4-4 6-1v-5l5-3 2-1 1-3z" fill="#4F811C"/>
<path transform="translate(465,707)" d="m0 0h3l-1 4-8 7h-2l-2 4-10 13-7 10-1 2 4-2h5l-12 9-6 9-6 11v3l2-3h2l1-4h2l2-4 7-8 11-10 1-3 7-4h2l1 4-6 4-5 2-7 6 9-2-4 3-9 6-7 5-8 12-3 7-3 1-6 6v-16l1-7h1v6l4 1 11-23 7-10 9-15 4-14h1l1 8 5-6 2-6z" fill="#528328"/>
<path transform="translate(611,91)" d="m0 0 5 1 11 25v2h2l1-5 9-21 2-2 5 1-1 6-12 27-3 5-5-1-8-16-7-16v-5z" fill="#0D2B35"/>
<path transform="translate(558,91)" d="m0 0 5 1 10 22 1 5h2l3-9 7-17 2-2 5 1-1 7-12 26-3 5-5-1-8-16-4-9-3-7v-5z" fill="#0C2B35"/>
<path transform="translate(664,97)" d="m0 0 9 1 5 5v14l-5 6-2 1h-7l-5-4-2-5v-9l3-6z" fill="#FADB90"/>
<path transform="translate(517,97)" d="m0 0 9 1 4 4 1 3v11l-3 5-4 3h-7l-6-5-1-3v-11l3-5z" fill="#FADB90"/>
<path transform="translate(272,500)" d="m0 0h10l5 3 6 7 2 5-1 4-35-4 1-5 7-8z" fill="#80CB27"/>
<path transform="translate(356,532)" d="m0 0h3v6l-11 17-3 4v3l-7 1-2-7-1-14-2-1 10-3 5-3z" fill="#FC8971"/>
<path transform="translate(1065,251)" d="m0 0 5 1 8 14 2-9 2-2 4 1 3 13 1 9-2-3-4-17-2 1-1 9-1 2h-3l-8-14-1-1 1 6 1 9-4-2-9-9-2-1 4 8 4 6-1 3-14-6 5 5 7 6-1 2-8-2-3-1 4 4 8 4 6 8 5 2-4 1-7-6-4-4-8-5-2-2 1-4h5l-6-5v-5l4-1 8 4-5-7-1-6 4-2 8 7 2 2-2-6v-6z" fill="#2F473E"/>
<path transform="translate(418,603)" d="m0 0 1 2 5 1 5 6-3 1-12-2-8 1-12 4-5 6-3 8-2 11-2-4-3-14-1-4 8-3 5-5 10-4 10-2h7z" fill="#F6DD58"/>
<path transform="translate(382,502)" d="m0 0 11 2 15 5 9 5 15 5 1 7-2 1-15-6-1 6-2 2-4-1-1-5 4-4-9-5v-2l-6-2-3 1-8-3 1-3-5-2z" fill="#FCD892"/>
<path transform="translate(429,555)" d="m0 0 4 5 2 4v5h2l3 6-1 4-13 8-4 2h-4l-1-4h5l2-12 3-12z" fill="#FC896F"/>
<path transform="translate(1067,394)" d="m0 0h15v1l-21 3-11 6-4 6 5-3 3-3 9-2-4 3-6 4-3 3-1 3 11-6 8-1-3 2-8 4-4 5 6-1 7-3h5l-6 7-3 4 11-5 12-2h5l-3 2-12 2-9 5h-5l-1-5 4-4-5 2-7 1-2-2v-3l-4-1-2-9 6-7 10-5z" fill="#4C4A3D"/>
<path transform="translate(370,722)" d="m0 0 4 2 4 3 2 7 8 11 6 12 5-5-1 5v9l3 8 5 1v22l-2-3-5-17-4-4-1-7-5-12-7-8-8-4v-1h8l-5-8-5-2-3-5z" fill="#518229"/>
<path transform="translate(1270,242)" d="m0 0h2l3 10 1 6v20l-4 17-8 17-7 9-9 10-14 10-8 4h-3v-2l13-7 9-7 7-6 10-14 7-15 3-13 1-15-2-16z" fill="#214140"/>
<path transform="translate(159,482)" d="m0 0 1 2v20h-16v-20l7 7 2-4z" fill="#719428"/>
<path transform="translate(421,556)" d="m0 0h3l-2 9-2 7 2-1-1 6 2-4h1l-1 10-1 2h-9l-6-3 3-9 4-10 5-5z" fill="#F6D94C"/>
<path transform="translate(1162,338)" d="m0 0 5 1 9 3 17 1-5 5-10 5h-10l-5-3-2-5z" fill="#EBA285"/>
<path transform="translate(329,731)" d="m0 0 7 1 5 2 2-1 5 8 14 9 10 8 10 9 2 4 3 1 2 2 1-2 6 11-1 2h-2l-10-13-8-8-11-9-8-5-14-2 3-2 5-1-8-5h-5v-2l-5-2-4-3z" fill="#44782E"/>
<path transform="translate(599,91)" d="m0 0 5 1 1 1v35l-2 2-4-1-1-1v-36z" fill="#072536"/>
<path transform="translate(329,574)" d="m0 0 8 3 6 7 6 13-1 8 2 4-4 3-6 2 2-5 1-8-7-14-7-8-6-3v-1z" fill="#F7DC5A"/>
<path transform="translate(160,487)" d="m0 0h16v16h-16z" fill="#007AE6"/>
<path transform="translate(552,369)" d="m0 0h15v4h-12v6h11v4h-11v7h12v4h-15l-1-1v-23z" fill="#EFEFEB"/>
<path transform="translate(571,369)" d="m0 0 5 1 4 6 3-1 4-6h4l-1 5-5 6 2 5 4 5v4l-4-1-5-6v-2h-2l-2 5-3 4h-4l1-5 5-6-1-4-5-7z" fill="#F2F2F0"/>
<path transform="translate(110,559)" d="m0 0h8l4 4 1 6-3 5-4 2-6-1-4-4-1-5 3-5z" fill="#A1A9AF"/>
<path transform="translate(162,559)" d="m0 0h7l5 5v6l-4 5-6 1-5-3-2-3v-6z" fill="#A3AAB2"/>
<path transform="translate(192,506)" d="m0 0 4 2 2 4v30l-4 6h-2z" fill="#A3AAB2"/>
<path transform="translate(616,369)" d="m0 0h4l7 16v2h2l1-5 6-13h4l-1 5-9 20-5-1-9-20z" fill="#F2F1EF"/>
<path transform="translate(426,543)" d="m0 0 3 4 5-1-2 6-3 4-3 15-3 3-3 9-1-4 1-5-2 2 1-6 4-12-2-2v-7z" fill="#F7CF46"/>
<path transform="translate(467,774)" d="m0 0 4 1-18 7h-2v2l-7 3-14 11-2 2h-6l6-7 7-6h2v-2l14-7z" fill="#2F673C"/>
<path transform="translate(512,369)" d="m0 0h15v4h-11v7h11v3h-12v11h-4v-24z" fill="#F1F2EB"/>
<path transform="translate(310,511)" d="m0 0h7l5 3 3 9-24-3 2-4 5-4z" fill="#80CB27"/>
<path transform="translate(593,369)" d="m0 0h22v4h-9v21h-4v-21h-8z" fill="#F4F3EF"/>
<path transform="translate(443,525)" d="m0 0h1l3 20-7 4-7 1 2-9 3-5 4-10z" fill="#A06635"/>
<path transform="translate(382,502)" d="m0 0 11 2 15 5 9 5 2 4h-9l-7-4v-2l-6-2-3 1-8-3 1-3-5-2z" fill="#FBD685"/>
<path transform="translate(457,741)" d="m0 0h2l1 4-6 4-5 2-7 6 9-2-4 3-9 6-7 5-8 12-3 7-2 1 1-6 5-9h2l1-4h2l2-4 7-8 11-10 1-3z" fill="#4A7C2A"/>
<path transform="translate(365,499)" d="m0 0h1v8l-2 4-1 8-3 3-6-7-3-7 8-4z" fill="#9D6635"/>
<path transform="translate(591,624)" d="m0 0 6 2 22 13 7 4-3 1-14-7h-7l-2 3h-2v3l-5 1-1-3 4-8-1-4z" fill="#BBCD12"/>
<path transform="translate(1178,305)" d="m0 0h9l4 1-2 4-7 4h-13l-4-2v-2l8-4z" fill="#ED6424"/>
<path transform="translate(772,736)" d="m0 0 6 1 5 6v9l7 2 4 5 1 2v8l-4-2-12-14 2-1-2-10-4-3-3-1z" fill="#689629"/>
<path transform="translate(430,754)" d="m0 0 1 2-8 17-2 5-3 9-3 4-4 4v-16l1-7h1v6l4 1 11-23z" fill="#528128"/>
<path transform="translate(1460,677)" d="m0 0h2v10l7-6 2 1-6 6 9 1v2l-10 1 6 6-1 2-7-7-1 11h-1l-1-10-6 6-2-1 7-8h-11l1-2h9l-6-8 4 2 4 4z" fill="#FAC24A"/>
<path transform="translate(531,369)" d="m0 0h4v21h12v4h-15l-1-1z" fill="#FBF9F5"/>
<path transform="translate(1460,301)" d="m0 0h1l1 11 7-7v3l-5 5 10 1v2l-10 1 6 6-1 2-7-7-1 11h-1l-1-11-7 7v-3l5-5-10-1v-2l10-1-6-6 1-2 7 7z" fill="#F9A918"/>
<path transform="translate(998,195)" d="m0 0h2l1 10 6-6 2 1-7 7 11 1v1l-11 1 7 7h-3l-5-5-1 10h-2l-1-10-6 6-2-1 7-7-11-1v-1l11-1-7-7h3l5 5z" fill="#F9A918"/>
<path transform="translate(1227,192)" d="m0 0 6 2 13 9 12 12 9 14 5 13-3-1-8-16-8-11-9-9-14-9-3-2z" fill="#224140"/>
<path transform="translate(789,695)" d="m0 0 8 1 8 5 3 7v5l7 1 4 5v7l-4 4v-3l1-2v-6l-2-2h-7l-3 1 1-9-3-7-5-3h-13l-5 1v-2z" fill="#689629"/>
<path transform="translate(1181,184)" d="m0 0h22l14 3 9 4v3l-11-4-16-3h-13l-18 3-1-3z" fill="#25463F"/>
<path transform="translate(365,562)" d="m0 0 3 1v2l5 2-2 2-30 2h-5l5-4 6-4 6 2h11z" fill="#DE6331"/>
<path transform="translate(1040,693)" d="m0 0h2l1 10 6-6 2 1-7 7 11 1v1l-11 1-2 1v11h-1l-1-11-7 7v-3l5-5-10-1v-2l9-1-5-5v-2l4 2 3 3z" fill="#F9A70F"/>
<path transform="translate(812,754)" d="m0 0 8 1 6 5 2 4v8l-3 6 5 2 4 5 1 6-3 7-2 2-4-1 5-5 1-5-2-7-5-2-6-1v-2l4-2 2-4v-7l-4-5-9-4z" fill="#689629"/>
<path transform="translate(65,244)" d="m0 0 9 5-1 5-7 17h-1z" fill="#2B643E"/>
<path transform="translate(329,731)" d="m0 0 7 1 5 2 2-1 5 8 7 4-1 3 2 1-14-1 3-2 5-1-8-5h-5v-2l-5-2-4-3z" fill="#5E8D23"/>
<path transform="translate(1270,242)" d="m0 0h2l3 10 1 6v20l-3 14h-3l3-20-1-17-2-9z" fill="#2F533C"/>
<path transform="translate(1067,394)" d="m0 0h15v1l-21 3-11 6-4 6 5-3 3-3 9-2-4 3-6 4-5 6-1-4-3-1 1-4 5-6 10-5z" fill="#32463F"/>
<path transform="translate(0,226)" d="m0 0 2 3 1 15 7 20 1 4-5-5-4-5-2-1z" fill="#986536"/>
<path transform="translate(1065,251)" d="m0 0 5 1 8 14 2-9 2-2 4 1 3 13 1 9-2-3-4-17-2 1-1 9-1 2h-3l-8-14-1-1-2 2-2-5z" fill="#324D3D"/>
<path transform="translate(205,489)" d="m0 0h10l5 3v2l-6-2h-8l-5 2-2 5-2 2-7-4-7 2-3 4-3-1 6-7 8-1 6 2 5-5z" fill="#4E7F1C"/>
<path transform="translate(407,688)" d="m0 0 2 1 1 9-1 1-1 13-1 45h-1l-1-51-3-6 3 1 1 2-1-7 1-7z" fill="#709726"/>
<path transform="translate(1047,268)" d="m0 0 5 5 8 7-1 2-8-2-3-1 4 4 8 4 6 8 5 2-4 1-7-6-4-4-8-5-2-2 1-4h5l-6-5z" fill="#284340"/>
<path transform="translate(597,580)" d="m0 0 1 2-12 21-2 4 1 4 14 9 7 4-3 1-16-9-6-5 1-6 8-15z" fill="#F8C702"/>
<path transform="translate(218,715)" d="m0 0 7 2 1 1v14l-4-3-5-1v-9l-1-3z" fill="#839C21"/>
<path transform="translate(311,580)" d="m0 0 9 1 4 5 7 10 4 6 1 3v7l-6 8-5 4-2-1 9-9 1-2v-7l-3-6-6-8-4-7-9-3z" fill="#916338"/>
<path transform="translate(68,496)" d="m0 0h10l6 3-2 2-5-2h-8l-5 5-1 2-4-2h-6l-5 5-2 4h-2l2-6 5-5 2-1h9z" fill="#4E7F1C"/>
<path transform="translate(479,100)" d="m0 0 3 3 4 10v2h-13z" fill="#F8DB8E"/>
<path transform="translate(1177,261)" d="m0 0 1 3-4 10-10 2-3 3v7l2 4-4-2-2-4 1-7 5-5 9-1z" fill="#303F41"/>
<path transform="translate(1195,357)" d="m0 0 4 1-18 6-33 16-5 1 5-4 26-13z" fill="#112D46"/>
<path transform="translate(0,296)" d="m0 0 2 4 2 26 1 9h-2l-3-6z" fill="#FCD583"/>
<path transform="translate(12,514)" d="m0 0 8 1 4 4-21 3 2-4z" fill="#6F9926"/>
<path transform="translate(431,782)" d="m0 0 5 3 1 2-9 7-6 6h-2l2-6z" fill="#7A961F"/>
<path transform="translate(1210,277)" d="m0 0 5 1 1 2v6l-4 3-4-1-2-3 1-5z" fill="#203643"/>
<path transform="translate(1068,415)" d="m0 0 3 1-8 8-1 2 11-5 12-2h5l-3 2-12 2-9 5h-5l-1-5 5-5h2z" fill="#3F483E"/>
<path transform="translate(568,616)" d="m0 0 5 2 12 8 5 4-1 6-6 12-4 6-1-3 9-16-1-5-11-8-7-4z" fill="#F48FA5"/>
<path transform="translate(401,774)" d="m0 0 5 1v22l-2-3-4-15z" fill="#80991F"/>
<path transform="translate(409,618)" d="m0 0h17l2 2h-13l-16 4-5 4-4 10-1 5-2-1 3-12 4-6 11-5z" fill="#8E6238"/>
<path transform="translate(420,546)" d="m0 0h2l-1 8h-10l-6-1 5-5z" fill="#E1693A"/>
<path transform="translate(145,485)" d="m0 0 4 5 2 5v8h-6z" fill="#81CA27"/>
<path transform="translate(325,497)" d="m0 0h7l5 1 6-1 6 2-1 3-2-1h-8l-3 3-4-4h-5l-4 5h-2l2-6z" fill="#4E7F1C"/>
<path transform="translate(1108,259)" d="m0 0 3 2 1 18 3 15-4-2-3-17z" fill="#406836"/>
<path transform="translate(722,191)" d="m0 0h4l1 2v10l-2 3-3-1-1-2v-10z" fill="#FCD58F"/>
<path transform="translate(742,713)" d="m0 0 5 2 9 7 6 8 1 4-7-6-14-14z" fill="#689629"/>
<path transform="translate(1065,253)" d="m0 0 2 4 3 8v5l-4-2-11-11 3-1 8 8-2-6z" fill="#193443"/>
<path transform="translate(465,707)" d="m0 0h3l-1 4-8 7h-2l-2 4-4 4 1-4 3-3 2-6z" fill="#5C8B22"/>
<path transform="translate(1205,560)" d="m0 0 3 1-26 12-10 4-3-1 21-10z" fill="#112D46"/>
<path transform="translate(1145,269)" d="m0 0 4 1 2 5-2 4-4 1-3-3 1-7z" fill="#1D3842"/>
<path transform="translate(412,772)" d="m0 0h1v6h3l1 5-3 8-2 4h-1v-16z" fill="#779620"/>
<path transform="translate(160,483)" d="m0 0h16l1 4h-18z" fill="#112D46"/>
<path transform="translate(363,188)" d="m0 0 3 1 2 3v10l-3 3h-2z" fill="#FDD892"/>
<path transform="translate(781,754)" d="m0 0 6 1 5 4 1 2v7l-5-4-7-9z" fill="#4F801C"/>
<path transform="translate(1165,188)" d="m0 0h3v2l-16 7-11 7 2-5 16-9z" fill="#24453F"/>
<path transform="translate(82,547)" d="m0 0h6v11h-6z" fill="#A3AAB2"/>
<path transform="translate(427,537)" d="m0 0h2l2 5 4-1-1 5-6 2-2-4-4 3-1-2 3-2 2-5z" fill="#F6DE57"/>
<path transform="translate(1142,200)" d="m0 0m-1 1m-2 1h2v3l-8 7-8 10-2 2v-4l7-9z" fill="#1B3A42"/>
<path transform="translate(985,660)" d="m0 0h2v8h8v2h-8v8h-2v-8h-8v-1h8z" fill="#F9C44C"/>
<path transform="translate(354,797)" d="m0 0h21l8 2v1h-18l-11-2z" fill="#2A6340"/>
<path transform="translate(370,722)" d="m0 0 4 2 4 3 1 8-5-3-4-4-1-4z" fill="#588821"/>
<path transform="translate(1270,242)" d="m0 0h2l3 10 1 11h-2l-1 3-2-16z" fill="#31573B"/>
<path transform="translate(354,746)" d="m0 0 5 2 12 9 5 5h-4l-9-8-7-4v-2h-2z" fill="#4A7D2A"/>
<path transform="translate(1047,277)" d="m0 0 3 1h-2l2 4 10 5 6 8 5 2-4 1-7-6-4-4-8-5-2-2z" fill="#354F3D"/>
<path transform="translate(433,582)" d="m0 0 2 1-12 12-2-4-2-2z" fill="#FCDD8F"/>
<path transform="translate(457,741)" d="m0 0h2l1 4-6 4-5 2-4 3 2-4 3-5z" fill="#5E8C23"/>
<path transform="translate(365,507)" d="m0 0 3 4-2 3-1 7-3 1 1 6-2 1-1-6 2-4 2-10z" fill="#F6DC4E"/>
<path transform="translate(549,642)" d="m0 0 6 2 3 3-2 4-8-4-1-2z" fill="#F7E20B"/>
<path transform="translate(388,512)" d="m0 0 4 1v6l-2 2-5-1v-6z" fill="#9A8F53"/>
<path transform="translate(1164,337)" d="m0 0 20 4 9 1v1h-17l-11-4z" fill="#2F4040"/>
<path transform="translate(411,520)" d="m0 0 4 1 1 3-3 5-4-1-1-5z" fill="#9D8F52"/>
<path transform="translate(333,601)" d="m0 0 2 1 1 3v7l-6 8-5 4-2-1 9-9 1-2z" fill="#8F6238"/>
<path transform="translate(407,688)" d="m0 0 2 1 1 9-1 1-1 13h-1l-1-12-1-4 1-7z" fill="#5A8A22"/>
<path transform="translate(1243,331)" d="m0 0m-1 1m-2 1h2l-2 4-14 8h-3v-2l13-7z" fill="#203F40"/>
<path transform="translate(1082,255)" d="m0 0 4 1 3 13 1 9-2-3-4-17-5 3 2-5z" fill="#436038"/>
<path transform="translate(944,234)" d="m0 0h2v8h8v1h-8v8h-2v-8h-8v-1h8z" fill="#F9AC22"/>
<path transform="translate(1445,225)" d="m0 0h1v8h8v2h-8v8h-1v-8h-8v-2h8z" fill="#F9A812"/>
<path transform="translate(475,177)" d="m0 0 3 1 3 5 8 2-2 3-7-2-5-3-1-5z" fill="#FACB80"/>
<path transform="translate(368,530)" d="m0 0 7 6v3l-4-2-2 4-1 6h-1l-1-10z" fill="#E76C3E"/>
<path transform="translate(782,177)" d="m0 0 3 1 3 5 7 2-2 1-1 2-9-4-2-3z" fill="#FBD185"/>
<path transform="translate(1460,689)" d="m0 0 14 1v1l-10 1 6 6-1 2-7-7-1 11h-1l-1-14z" fill="#F9AC0D"/>
<path transform="translate(334,547)" d="m0 0h2l2 15-5 1z" fill="#FCDC8F"/>
<path transform="translate(1257,318)" d="m0 0v3l-9 10-6 4 2-5 8-7z" fill="#2D503C"/>
<path transform="translate(1181,184)" d="m0 0 4 1 1 2-18 3-1-3z" fill="#365A3B"/>
<path transform="translate(406,757)" d="m0 0h1l1 13 1 7h-2v15h-1z" fill="#4E7F1C"/>
<path transform="translate(441,745)" d="m0 0h5l-12 9-4 4 1-7 3-1 2-3z" fill="#659227"/>
<path transform="translate(378,520)" d="m0 0 7 1 1 5h-6l-3-2z" fill="#FDDD94"/>
<path transform="translate(768,273)" d="m0 0h3l4 6 5 2-1 2-6-1-5-4z" fill="#FBCF8C"/>
<path transform="translate(416,710)" d="m0 0v3l-5 11-2 7h-1v-11h2l2-5z" fill="#639226"/>
<path transform="translate(1035,630)" d="m0 0h2v5h5v2h-5v5h-2v-5h-5v-2h5z" fill="#F8C845"/>
<path transform="translate(1060,402)" d="m0 0 3 1-9 5-6 7-1-4-3-1 2-2v2l5-3 3-3z" fill="#2F3B42"/>
<path transform="translate(1147,356)" d="m0 0 1 2-11 23-1-3 5-12z" fill="#1C3843"/>
<path transform="translate(1040,693)" d="m0 0h1v11h-2v2h-11v-1l9-1-5-5v-2l4 2 3 3z" fill="#FCD37B"/>
<path transform="translate(410,531)" d="m0 0 6 1 2 2v3h-6l-3-2z" fill="#FDDD94"/>
<path transform="translate(985,288)" d="m0 0 2 1v4l5 1v1h-5v5h-2v-5h-5v-2h5z" fill="#F9B030"/>
<path transform="translate(407,582)" d="m0 0 9 3 2 5-1 3-10-9z" fill="#E16432"/>
<path transform="translate(395,487)" d="m0 0 4 1 2-1-2 6-3 1v-2l-3 1v-2l-4 1 4-4z" fill="#FE6C22"/>
<path transform="translate(1128,278)" d="m0 0 2 4 1 19-2-3-1-2z" fill="#2E4140"/>
<path transform="translate(1122,223)" d="m0 0 1 2-6 12-2 3h-2l3-9 4-7z" fill="#26463E"/>
<path transform="translate(1068,415)" d="m0 0 3 1-8 8-1 2h3v2l-5-1 1-5 4-4h2z" fill="#193045"/>
<path transform="translate(430,754)" d="m0 0 1 2-7 15h-2l1-5 6-11z" fill="#45792D"/>
<path transform="translate(429,555)" d="m0 0 3 3-2 6-3 7h-1l1-10z" fill="#E26836"/>
<path transform="translate(217,508)" d="m0 0h7l4 4-14-1z" fill="#54841F"/>
<path transform="translate(1066,415)" d="m0 0 2 1-1 2-6 2-4 2h-5l-1-4 6 1 5-3z" fill="#404240"/>
<path transform="translate(389,772)" d="m0 0 3 3 4 8-1 2h-2l-3-4z" fill="#5C8824"/>
<path transform="translate(374,741)" d="m0 0h7l3 1 3 6-1 2-7-6-5-2z" fill="#679528"/>
<path transform="translate(556,630)" d="m0 0 6 2 2 4-3 1-6-3z" fill="#F7E20A"/>
<path transform="translate(425,498)" d="m0 0h2v2l4 1 1 6-2 1v-2h-3v-3h-2z" fill="#FF6721"/>
<path transform="translate(1244,301)" d="m0 0 1 3-4 9-4 4 3-9z" fill="#3B483E"/>
<path transform="translate(448,755)" d="m0 0 3 1-9 5-5 4-2-1 5-6z" fill="#689629"/>
<path transform="translate(1041,705)" d="m0 0 14 1v1l-11 1-2 1v11h-1l-1-14z" fill="#F9A505"/>
<path transform="translate(1259,695)" d="m0 0h1v5h6v2h-6v5h-1v-5h-5v-2h5z" fill="#F8BA30"/>
<path transform="translate(597,580)" d="m0 0 1 2-9 15h-2l2-5 7-11z" fill="#F8CE02"/>
<path transform="translate(1265,306)" d="m0 0 1 2-7 11-2-1 2-4 4-7z" fill="#25453F"/>
<path transform="translate(1211,266)" d="m0 0 7 1 3 3v2l-11-3-1-2z" fill="#3D473E"/>
<path transform="translate(424,742)" d="m0 0 1 2-5 10h-3l-2 1 2-5h2l2-4z" fill="#487B2D"/>
<path transform="translate(673,655)" d="m0 0h7l5 5v6l-2-4-3-4-8-1z" fill="#4E7F1C"/>
<path transform="translate(1401,266)" d="m0 0h2v5h5v1h-5v5l-2 1v-6h-5v-1h5z" fill="#F9AB21"/>
<path transform="translate(1080,260)" d="m0 0h1v8l-1 2h-3l-3-5v-2l3 1 1 2z" fill="#1F3B42"/>
<path transform="translate(351,797)" d="m0 0 14 2v1h-17v-2z" fill="#678C1E"/>
<path transform="translate(443,753)" d="m0 0 2 1-7 7-4 6-4 1 2-4 5-5z" fill="#4E7F24"/>
<path transform="translate(390,528)" d="m0 0h2l1 4 7 2h2v-2h2v3l-9 1-5-5z" fill="#837E32"/>
<path transform="translate(467,774)" d="m0 0 4 1-12 5h-2l1-4z" fill="#4F802A"/>
<path transform="translate(1274,263)" d="m0 0h2v11l-2 4h-1z" fill="#204141"/>
<path transform="translate(378,541)" d="m0 0 11 6v1h-7l-4-5z" fill="#FDEDC8"/>
<path transform="translate(1146,257)" d="m0 0 6 2-4 2-8 1v-2z" fill="#35473E"/>
<path transform="translate(460,757)" d="m0 0 2 1-10 6-4 2-2-2z" fill="#497B29"/>
<path transform="translate(397,766)" d="m0 0 2 4 1 6h-3l-2-5z" fill="#568525"/>
<path transform="translate(370,722)" d="m0 0 4 2 4 3 1 8-2-2-4-7z" fill="#6A9526"/>
<path transform="translate(1273,254)" d="m0 0h2l1 9h-2l-1 3z" fill="#396139"/>
</svg>
